# xmcd
# 
# Track frame offsets:
#     150
#     16378
#     33729
#     53494
#     72526
#     91339
#     115511
#     132395
#     149546
#     168988
#     186799
# 
# Disc length: 2782
# 
# Revision: 3
# Processed by: cddbd v1.5.2PL0 Copyright (c) Steve Scherf et al.
# Submitted via: fre:ac v1.1beta2
# 
DISCID=980adc0b
DTITLE=Tamara - Canta Roberto Carlos
DYEAR=2004
DGENRE=Pop
TTITLE0=Desahogo
TTITLE1=El Gato Que Está Triste Y Azul
TTITLE2=La Distancia
TTITLE3=Abrázame Así
TTITLE4=Lady Laura
TTITLE5=Detalles
TTITLE6=Propuesta
TTITLE7=Que Será De Tí
TTITLE8=Cóncavo Y Convexo
TTITLE9=Tengo Que Olvidar
TTITLE10=Emociones
EXTD=YEAR: 2004
EXTT0=
EXTT1=
EXTT2=
EXTT3=
EXTT4=
EXTT5=
EXTT6=
EXTT7=
EXTT8=
EXTT9=
EXTT10=
PLAYORDER=
